<?xml version="1.0" encoding="utf-8"?>
<svg width="1264" height="558" viewBox="0 0 1264 558" xmlns="http://www.w3.org/2000/svg">
<rect id="frame" x="0" y="0" width="1264" height="558" fill="#fff" stroke="none" stroke-width="0"/>

<!-- Association in team -->
<g class="page_0_ALPQqCix diagram_page" visibility="visible">
	<line x1="967" y1="60" x2="792" y2="60" stroke="#d6604d" stroke-width="2"/>
	<text x="887" y="77" fill="#4d4d4d" font-family="Verdana" font-size="12">0,1</text>
	<line x1="492" y1="186" x2="792" y2="60" stroke="#d6604d" stroke-width="2"/>
	<text x="612" y="151.41" fill="#4d4d4d" font-family="Verdana" font-size="12">0,6</text>
	<g>
		<path d="M809 35 a14 14 90 0 1 14 14 V60 h-62 V49 a14 14 90 0 1 14 -14" fill="#f4a582" stroke="#f4a582" stroke-width="0"/>
		<path d="M823 60 v11 a14 14 90 0 1 -14 14 H775 a14 14 90 0 1 -14 -14 V60 H62" fill="#fddbc7" stroke="#fddbc7" stroke-width="0"/>
		<rect x="761" y="35" width="62" height="50" fill="none" rx="14" stroke="#d6604d" stroke-width="2"/>
		<line x1="761" y1="60" x2="823" y2="60" stroke="#d6604d" stroke-width="1"/>
		<text x="769" y="52.75" fill="#000" font-family="Verdana" font-size="12">in team</text>
	</g>
</g>

<!-- Association presented by -->
<g class="page_0_ALPQqCix diagram_page" visibility="visible">
	<line x1="309" y1="355" x2="194" y2="186" stroke="#d6604d" stroke-width="2"/>
	<text x="274.09" y="296" fill="#4d4d4d" font-family="Verdana" font-size="12">1,1</text>
	<line x1="62" y1="186" x2="194" y2="186" stroke="#d6604d" stroke-width="2"/>
	<text x="120" y="203" fill="#4d4d4d" font-family="Verdana" font-size="12">1,1</text>
	<g>
		<path d="M227 161 a14 14 90 0 1 14 14 V186 h-94 V175 a14 14 90 0 1 14 -14" fill="#f4a582" stroke="#f4a582" stroke-width="0"/>
		<path d="M241 186 v11 a14 14 90 0 1 -14 14 H161 a14 14 90 0 1 -14 -14 V186 H94" fill="#fddbc7" stroke="#fddbc7" stroke-width="0"/>
		<rect x="147" y="161" width="94" height="50" fill="none" rx="14" stroke="#d6604d" stroke-width="2"/>
		<line x1="147" y1="186" x2="241" y2="186" stroke="#d6604d" stroke-width="1"/>
		<text x="154" y="178.75" fill="#000" font-family="Verdana" font-size="12">presented by</text>
	</g>
</g>

<!-- Association team dev -->
<g class="page_0_ALPQqCix diagram_page" visibility="visible">
	<line x1="309" y1="355" x2="309" y2="186" stroke="#d6604d" stroke-width="2"/>
	<text x="314" y="296" fill="#4d4d4d" font-family="Verdana" font-size="12">1,1</text>
	<line x1="492" y1="186" x2="309" y2="186" stroke="#d6604d" stroke-width="2"/>
	<text x="351" y="203" fill="#4d4d4d" font-family="Verdana" font-size="12">1,1</text>
	<g>
		<path d="M331 161 a14 14 90 0 1 14 14 V186 h-72 V175 a14 14 90 0 1 14 -14" fill="#f4a582" stroke="#f4a582" stroke-width="0"/>
		<path d="M345 186 v11 a14 14 90 0 1 -14 14 H287 a14 14 90 0 1 -14 -14 V186 H72" fill="#fddbc7" stroke="#fddbc7" stroke-width="0"/>
		<rect x="273" y="161" width="72" height="50" fill="none" rx="14" stroke="#d6604d" stroke-width="2"/>
		<line x1="273" y1="186" x2="345" y2="186" stroke="#d6604d" stroke-width="1"/>
		<text x="280" y="178.75" fill="#000" font-family="Verdana" font-size="12">team dev</text>
	</g>
</g>

<!-- Association reserved -->
<g class="page_0_ALPQqCix diagram_page" visibility="visible">
	<line x1="492" y1="186" x2="673" y2="186" stroke="#d6604d" stroke-width="2"/>
	<text x="612" y="203" fill="#4d4d4d" font-family="Verdana" font-size="12">0,3</text>
	<line x1="792" y1="186" x2="673" y2="186" stroke="#d6604d" stroke-width="2"/>
	<text x="713" y="203" fill="#4d4d4d" font-family="Verdana" font-size="12">0,1</text>
	<g>
		<path d="M693 161 a14 14 90 0 1 14 14 V186 h-68 V175 a14 14 90 0 1 14 -14" fill="#f4a582" stroke="#f4a582" stroke-width="0"/>
		<path d="M707 186 v11 a14 14 90 0 1 -14 14 H653 a14 14 90 0 1 -14 -14 V186 H68" fill="#fddbc7" stroke="#fddbc7" stroke-width="0"/>
		<rect x="639" y="161" width="68" height="50" fill="none" rx="14" stroke="#d6604d" stroke-width="2"/>
		<line x1="639" y1="186" x2="707" y2="186" stroke="#d6604d" stroke-width="1"/>
		<text x="646" y="178.75" fill="#000" font-family="Verdana" font-size="12">reserved</text>
	</g>
</g>

<!-- Association is team member -->
<g class="page_0_ALPQqCix diagram_page" visibility="visible">
	<line x1="967" y1="355" x2="967" y2="186" stroke="#d6604d" stroke-width="2"/>
	<text x="941" y="271" fill="#4d4d4d" font-family="Verdana" font-size="12">0,1</text>
	<line x1="967" y1="60" x2="967" y2="186" stroke="#d6604d" stroke-width="2"/>
	<text x="972" y="128" fill="#4d4d4d" font-family="Verdana" font-size="12">1,1</text>
	<g>
		<path d="M1010 161 a14 14 90 0 1 14 14 V186 h-114 V175 a14 14 90 0 1 14 -14" fill="#f4a582" stroke="#f4a582" stroke-width="0"/>
		<path d="M1024 186 v11 a14 14 90 0 1 -14 14 H924 a14 14 90 0 1 -14 -14 V186 H114" fill="#fddbc7" stroke="#fddbc7" stroke-width="0"/>
		<rect x="910" y="161" width="114" height="50" fill="none" rx="14" stroke="#d6604d" stroke-width="2"/>
		<line x1="910" y1="186" x2="1024" y2="186" stroke="#d6604d" stroke-width="1"/>
		<text x="917" y="178.75" fill="#000" font-family="Verdana" font-size="12">is team member</text>
	</g>
</g>

<!-- Association has role -->
<g class="page_0_ALPQqCix diagram_page" visibility="visible">
	<line x1="1088" y1="60" x2="1088" y2="186" stroke="#d6604d" stroke-width="2"/>
	<text x="1093" y="111" fill="#4d4d4d" font-family="Verdana" font-size="12">1,1</text>
	<line x1="967" y1="355" x2="1088" y2="186" stroke="#d6604d" stroke-width="2"/>
	<text x="1006" y="319.07" fill="#4d4d4d" font-family="Verdana" font-size="12">0,N</text>
	<g>
		<path d="M1106 161 a14 14 90 0 1 14 14 V186 h-64 V175 a14 14 90 0 1 14 -14" fill="#f4a582" stroke="#f4a582" stroke-width="0"/>
		<path d="M1120 186 v11 a14 14 90 0 1 -14 14 H1070 a14 14 90 0 1 -14 -14 V186 H64" fill="#fddbc7" stroke="#fddbc7" stroke-width="0"/>
		<rect x="1056" y="161" width="64" height="50" fill="none" rx="14" stroke="#d6604d" stroke-width="2"/>
		<line x1="1056" y1="186" x2="1120" y2="186" stroke="#d6604d" stroke-width="1"/>
		<text x="1064" y="178.75" fill="#000" font-family="Verdana" font-size="12">has role</text>
	</g>
</g>

<!-- Association evaluate -->
<g class="page_0_ALPQqCix diagram_page" visibility="visible">
	<line x1="194" y1="481" x2="194" y2="355" stroke="#d6604d" stroke-width="2"/>
	<text x="199" y="448" fill="#4d4d4d" font-family="Verdana" font-size="12">0,N</text>
	<line x1="309" y1="355" x2="194" y2="355" stroke="#d6604d" stroke-width="2"/>
	<text x="241" y="372" fill="#4d4d4d" font-family="Verdana" font-size="12">0,1</text>
	<g>
		<path d="M214 330 a14 14 90 0 1 14 14 V355 h-68 V344 a14 14 90 0 1 14 -14" fill="#f4a582" stroke="#f4a582" stroke-width="0"/>
		<path d="M228 355 v11 a14 14 90 0 1 -14 14 H174 a14 14 90 0 1 -14 -14 V355 H68" fill="#fddbc7" stroke="#fddbc7" stroke-width="0"/>
		<rect x="160" y="330" width="68" height="50" fill="none" rx="14" stroke="#d6604d" stroke-width="2"/>
		<line x1="160" y1="355" x2="228" y2="355" stroke="#d6604d" stroke-width="1"/>
		<text x="168" y="347.75" fill="#000" font-family="Verdana" font-size="12">evaluate</text>
	</g>
</g>

<!-- Association team validate -->
<g class="page_0_ALPQqCix diagram_page" visibility="visible">
	<line x1="309" y1="355" x2="492" y2="355" stroke="#d6604d" stroke-width="2"/>
	<text x="356" y="372" fill="#4d4d4d" font-family="Verdana" font-size="12">1,1</text>
	<line x1="492" y1="186" x2="492" y2="355" stroke="#d6604d" stroke-width="2"/>
	<text x="497" y="296" fill="#4d4d4d" font-family="Verdana" font-size="12">1,1</text>
	<g>
		<path d="M527 330 a14 14 90 0 1 14 14 V355 h-98 V344 a14 14 90 0 1 14 -14" fill="#f4a582" stroke="#f4a582" stroke-width="0"/>
		<path d="M541 355 v11 a14 14 90 0 1 -14 14 H457 a14 14 90 0 1 -14 -14 V355 H98" fill="#fddbc7" stroke="#fddbc7" stroke-width="0"/>
		<rect x="443" y="330" width="98" height="50" fill="none" rx="14" stroke="#d6604d" stroke-width="2"/>
		<line x1="443" y1="355" x2="541" y2="355" stroke="#d6604d" stroke-width="1"/>
		<text x="450" y="347.75" fill="#000" font-family="Verdana" font-size="12">team validate</text>
	</g>
</g>

<!-- Association assigned consulting -->
<g class="page_0_ALPQqCix diagram_page" visibility="visible">
	<line x1="792" y1="481" x2="792" y2="355" stroke="#d6604d" stroke-width="2"/>
	<text x="797" y="405" fill="#4d4d4d" font-family="Verdana" font-size="12">0,N</text>
	<line x1="792" y1="186" x2="792" y2="355" stroke="#d6604d" stroke-width="2"/>
	<text x="797" y="279" fill="#4d4d4d" font-family="Verdana" font-size="12">0,N</text>
	<g>
		<path d="M845 330 a14 14 90 0 1 14 14 V355 h-134 V344 a14 14 90 0 1 14 -14" fill="#f4a582" stroke="#f4a582" stroke-width="0"/>
		<path d="M859 355 v11 a14 14 90 0 1 -14 14 H739 a14 14 90 0 1 -14 -14 V355 H134" fill="#fddbc7" stroke="#fddbc7" stroke-width="0"/>
		<rect x="725" y="330" width="134" height="50" fill="none" rx="14" stroke="#d6604d" stroke-width="2"/>
		<line x1="725" y1="355" x2="859" y2="355" stroke="#d6604d" stroke-width="1"/>
		<text x="733" y="347.75" fill="#000" font-family="Verdana" font-size="12">assigned consulting</text>
	</g>
</g>

<!-- Association received -->
<g class="page_0_ALPQqCix diagram_page" visibility="visible">
	<line x1="967" y1="355" x2="1088" y2="355" stroke="#d6604d" stroke-width="2"/>
	<text x="1006" y="372" fill="#4d4d4d" font-family="Verdana" font-size="12">0,N</text>
	<line x1="1204" y1="355" x2="1088" y2="355" stroke="#d6604d" stroke-width="2"/>
	<text x="1127" y="372" fill="#4d4d4d" font-family="Verdana" font-size="12">1,1</text>
	<g>
		<path d="M1107 330 a14 14 90 0 1 14 14 V355 h-66 V344 a14 14 90 0 1 14 -14" fill="#f4a582" stroke="#f4a582" stroke-width="0"/>
		<path d="M1121 355 v11 a14 14 90 0 1 -14 14 H1069 a14 14 90 0 1 -14 -14 V355 H66" fill="#fddbc7" stroke="#fddbc7" stroke-width="0"/>
		<rect x="1055" y="330" width="66" height="50" fill="none" rx="14" stroke="#d6604d" stroke-width="2"/>
		<line x1="1055" y1="355" x2="1121" y2="355" stroke="#d6604d" stroke-width="1"/>
		<text x="1062" y="347.75" fill="#000" font-family="Verdana" font-size="12">received</text>
	</g>
</g>

<!-- Association directed by -->
<g class="page_0_ALPQqCix diagram_page" visibility="visible">
	<line x1="62" y1="186" x2="62" y2="481" stroke="#d6604d" stroke-width="2"/>
	<text x="67" y="279" fill="#4d4d4d" font-family="Verdana" font-size="12">0,1</text>
	<line x1="194" y1="481" x2="62" y2="481" stroke="#d6604d" stroke-width="2"/>
	<text x="140" y="498" fill="#4d4d4d" font-family="Verdana" font-size="12">0,N</text>
	<g>
		<path d="M90 456 a14 14 90 0 1 14 14 V481 h-84 V470 a14 14 90 0 1 14 -14" fill="#f4a582" stroke="#f4a582" stroke-width="0"/>
		<path d="M104 481 v11 a14 14 90 0 1 -14 14 H34 a14 14 90 0 1 -14 -14 V481 H84" fill="#fddbc7" stroke="#fddbc7" stroke-width="0"/>
		<rect x="20" y="456" width="84" height="50" fill="none" rx="14" stroke="#d6604d" stroke-width="2"/>
		<line x1="20" y1="481" x2="104" y2="481" stroke="#d6604d" stroke-width="1"/>
		<text x="28" y="473.75" fill="#000" font-family="Verdana" font-size="12">directed by</text>
	</g>
</g>

<!-- Association jury member -->
<g class="page_0_ALPQqCix diagram_page" visibility="visible">
	<line x1="194" y1="481" x2="492" y2="481" stroke="#d6604d" stroke-width="2"/>
	<text x="226" y="498" fill="#4d4d4d" font-family="Verdana" font-size="12">0,2</text>
	<line x1="792" y1="481" x2="492" y2="481" stroke="#d6604d" stroke-width="2"/>
	<text x="678" y="498" fill="#4d4d4d" font-family="Verdana" font-size="12">0,N</text>
	<g>
		<path d="M525 456 a14 14 90 0 1 14 14 V481 h-94 V470 a14 14 90 0 1 14 -14" fill="#f4a582" stroke="#f4a582" stroke-width="0"/>
		<path d="M539 481 v11 a14 14 90 0 1 -14 14 H459 a14 14 90 0 1 -14 -14 V481 H94" fill="#fddbc7" stroke="#fddbc7" stroke-width="0"/>
		<rect x="445" y="456" width="94" height="50" fill="none" rx="14" stroke="#d6604d" stroke-width="2"/>
		<line x1="445" y1="481" x2="539" y2="481" stroke="#d6604d" stroke-width="1"/>
		<text x="453" y="473.75" fill="#000" font-family="Verdana" font-size="12">jury member</text>
	</g>
</g>

<!-- Association is teaching staff -->
<g class="page_0_ALPQqCix diagram_page" visibility="visible">
	<line x1="967" y1="355" x2="967" y2="481" stroke="#d6604d" stroke-width="2"/>
	<text x="972" y="448" fill="#4d4d4d" font-family="Verdana" font-size="12">0,1</text>
	<line x1="792" y1="481" x2="967" y2="481" stroke="#d6604d" stroke-width="2"/>
	<text x="884" y="498" fill="#4d4d4d" font-family="Verdana" font-size="12">1,1</text>
	<g>
		<path d="M1009 456 a14 14 90 0 1 14 14 V481 h-112 V470 a14 14 90 0 1 14 -14" fill="#f4a582" stroke="#f4a582" stroke-width="0"/>
		<path d="M1023 481 v11 a14 14 90 0 1 -14 14 H925 a14 14 90 0 1 -14 -14 V481 H112" fill="#fddbc7" stroke="#fddbc7" stroke-width="0"/>
		<rect x="911" y="456" width="112" height="50" fill="none" rx="14" stroke="#d6604d" stroke-width="2"/>
		<line x1="911" y1="481" x2="1023" y2="481" stroke="#d6604d" stroke-width="1"/>
		<text x="919" y="473.75" fill="#000" font-family="Verdana" font-size="12">is teaching staff</text>
	</g>
</g>

<!-- Entity TEAM MEMBER -->
<g class="page_0_ALPQqCix diagram_page" visibility="visible">
	<g>
		<rect x="913" y="9" width="108" height="25" fill="#bababa" stroke="#bababa" stroke-width="0" opacity="1"/>
		<rect x="913" y="34" width="108" height="77" fill="#e0e0e0" stroke="#e0e0e0" stroke-width="0" opacity="1"/>
		<rect x="913" y="9" width="108" height="102" fill="none" stroke="#878787" stroke-width="2" opacity="1"/>
		<line x1="913" y1="34" x2="1021" y2="34" stroke="#878787" stroke-width="1"/>
	</g>
	<text x="922" y="26.75" fill="#000" font-family="Verdana" font-size="12">TEAM MEMBER</text>
	<text x="918" y="51.8" fill="#000" font-family="Verdana" font-size="12">id_user</text>
	<line x1="918" y1="54" x2="964" y2="54" stroke="#000" stroke-width="1"/>
	<text x="918" y="68.8" fill="#000" font-family="Verdana" font-size="12">speciality</text>
	<text x="918" y="85.8" fill="#000" font-family="Verdana" font-size="12">individual_mark</text>
	<text x="918" y="102.8" fill="#000" font-family="Verdana" font-size="12">bonus_penalty</text>
</g>

<!-- Entity ROLE -->
<g class="page_0_ALPQqCix diagram_page" visibility="visible">
	<g>
		<rect x="1062" y="26" width="52" height="25" fill="#bababa" stroke="#bababa" stroke-width="0" opacity="1"/>
		<rect x="1062" y="51" width="52" height="43" fill="#e0e0e0" stroke="#e0e0e0" stroke-width="0" opacity="1"/>
		<rect x="1062" y="26" width="52" height="68" fill="none" stroke="#878787" stroke-width="2" opacity="1"/>
		<line x1="1062" y1="51" x2="1114" y2="51" stroke="#878787" stroke-width="1"/>
	</g>
	<text x="1072" y="43.75" fill="#000" font-family="Verdana" font-size="12">ROLE</text>
	<text x="1067" y="68.8" fill="#000" font-family="Verdana" font-size="12">id_role</text>
	<line x1="1067" y1="71" x2="1109" y2="71" stroke="#000" stroke-width="1"/>
	<text x="1067" y="85.8" fill="#000" font-family="Verdana" font-size="12">role</text>
</g>

<!-- Entity PRESENTATION -->
<g class="page_0_ALPQqCix diagram_page" visibility="visible">
	<g>
		<rect x="9" y="110" width="106" height="25" fill="#bababa" stroke="#bababa" stroke-width="0" opacity="1"/>
		<rect x="9" y="135" width="106" height="127" fill="#e0e0e0" stroke="#e0e0e0" stroke-width="0" opacity="1"/>
		<rect x="9" y="110" width="106" height="152" fill="none" stroke="#878787" stroke-width="2" opacity="1"/>
		<line x1="9" y1="135" x2="115" y2="135" stroke="#878787" stroke-width="1"/>
	</g>
	<text x="15" y="127.75" fill="#000" font-family="Verdana" font-size="12">PRESENTATION</text>
	<text x="14" y="152.8" fill="#000" font-family="Verdana" font-size="12">id_presentation</text>
	<line x1="14" y1="155" x2="109" y2="155" stroke="#000" stroke-width="1"/>
	<text x="14" y="169.8" fill="#000" font-family="Verdana" font-size="12">type</text>
	<text x="14" y="186.8" fill="#000" font-family="Verdana" font-size="12">datetime_begin</text>
	<text x="14" y="203.8" fill="#000" font-family="Verdana" font-size="12">datetime_end</text>
	<text x="14" y="220.8" fill="#000" font-family="Verdana" font-size="12">room</text>
	<text x="14" y="237.8" fill="#000" font-family="Verdana" font-size="12">jury_a_notes</text>
	<text x="14" y="254.8" fill="#000" font-family="Verdana" font-size="12">jury_b_notes</text>
</g>

<!-- Entity TEAM -->
<g class="page_0_ALPQqCix diagram_page" visibility="visible">
	<g>
		<rect x="377" y="93" width="230" height="25" fill="#bababa" stroke="#bababa" stroke-width="0" opacity="1"/>
		<rect x="377" y="118" width="230" height="161" fill="#e0e0e0" stroke="#e0e0e0" stroke-width="0" opacity="1"/>
		<rect x="377" y="93" width="230" height="186" fill="none" stroke="#878787" stroke-width="2" opacity="1"/>
		<line x1="377" y1="118" x2="607" y2="118" stroke="#878787" stroke-width="1"/>
	</g>
	<text x="475" y="110.75" fill="#000" font-family="Verdana" font-size="12">TEAM</text>
	<text x="382" y="135.8" fill="#000" font-family="Verdana" font-size="12">id_team</text>
	<line x1="382" y1="138" x2="432" y2="138" stroke="#000" stroke-width="1"/>
	<text x="382" y="152.8" fill="#000" font-family="Verdana" font-size="12">name</text>
	<text x="382" y="169.8" fill="#000" font-family="Verdana" font-size="12">team_work_mark</text>
	<text x="382" y="186.8" fill="#000" font-family="Verdana" font-size="12">team_validation_mark</text>
	<text x="382" y="203.8" fill="#000" font-family="Verdana" font-size="12">test_book_link</text>
	<text x="382" y="220.8" fill="#000" font-family="Verdana" font-size="12">file_path_scope_statement</text>
	<text x="382" y="237.8" fill="#000" font-family="Verdana" font-size="12">file_path_final_scope_statement</text>
	<text x="382" y="254.8" fill="#000" font-family="Verdana" font-size="12">file_path_scope_statement_analysis</text>
	<text x="382" y="271.8" fill="#000" font-family="Verdana" font-size="12">file_path_report</text>
</g>

<!-- Entity CONSULTING -->
<g class="page_0_ALPQqCix diagram_page" visibility="visible">
	<g>
		<rect x="739" y="110" width="106" height="25" fill="#bababa" stroke="#bababa" stroke-width="0" opacity="1"/>
		<rect x="739" y="135" width="106" height="127" fill="#e0e0e0" stroke="#e0e0e0" stroke-width="0" opacity="1"/>
		<rect x="739" y="110" width="106" height="152" fill="none" stroke="#878787" stroke-width="2" opacity="1"/>
		<line x1="739" y1="135" x2="845" y2="135" stroke="#878787" stroke-width="1"/>
	</g>
	<text x="751" y="127.75" fill="#000" font-family="Verdana" font-size="12">CONSULTING</text>
	<text x="744" y="152.8" fill="#000" font-family="Verdana" font-size="12">id_consulting</text>
	<line x1="744" y1="155" x2="825" y2="155" stroke="#000" stroke-width="1"/>
	<text x="744" y="169.8" fill="#000" font-family="Verdana" font-size="12">datetime_begin</text>
	<text x="744" y="186.8" fill="#000" font-family="Verdana" font-size="12">datetime_end</text>
	<text x="744" y="203.8" fill="#000" font-family="Verdana" font-size="12">speciality</text>
	<text x="744" y="220.8" fill="#000" font-family="Verdana" font-size="12">notes</text>
	<text x="744" y="237.8" fill="#000" font-family="Verdana" font-size="12">is_validated</text>
	<text x="744" y="254.8" fill="#000" font-family="Verdana" font-size="12">is_reserved</text>
</g>

<!-- Entity PROJECT -->
<g class="page_0_ALPQqCix diagram_page" visibility="visible">
	<g>
		<rect x="267" y="304" width="84" height="25" fill="#bababa" stroke="#bababa" stroke-width="0" opacity="1"/>
		<rect x="267" y="329" width="84" height="77" fill="#e0e0e0" stroke="#e0e0e0" stroke-width="0" opacity="1"/>
		<rect x="267" y="304" width="84" height="102" fill="none" stroke="#878787" stroke-width="2" opacity="1"/>
		<line x1="267" y1="329" x2="351" y2="329" stroke="#878787" stroke-width="1"/>
	</g>
	<text x="282" y="321.75" fill="#000" font-family="Verdana" font-size="12">PROJECT</text>
	<text x="272" y="346.8" fill="#000" font-family="Verdana" font-size="12">id_project</text>
	<line x1="272" y1="349" x2="334" y2="349" stroke="#000" stroke-width="1"/>
	<text x="272" y="363.8" fill="#000" font-family="Verdana" font-size="12">name</text>
	<text x="272" y="380.8" fill="#000" font-family="Verdana" font-size="12">description</text>
	<text x="272" y="397.8" fill="#000" font-family="Verdana" font-size="12">is_validated</text>
</g>

<!-- Entity USER -->
<g class="page_0_ALPQqCix diagram_page" visibility="visible">
	<g>
		<rect x="933" y="279" width="68" height="25" fill="#bababa" stroke="#bababa" stroke-width="0" opacity="1"/>
		<rect x="933" y="304" width="68" height="127" fill="#e0e0e0" stroke="#e0e0e0" stroke-width="0" opacity="1"/>
		<rect x="933" y="279" width="68" height="152" fill="none" stroke="#878787" stroke-width="2" opacity="1"/>
		<line x1="933" y1="304" x2="1001" y2="304" stroke="#878787" stroke-width="1"/>
	</g>
	<text x="950" y="296.75" fill="#000" font-family="Verdana" font-size="12">USER</text>
	<text x="938" y="321.8" fill="#000" font-family="Verdana" font-size="12">id_user</text>
	<line x1="938" y1="324" x2="984" y2="324" stroke="#000" stroke-width="1"/>
	<text x="938" y="338.8" fill="#000" font-family="Verdana" font-size="12">firstname</text>
	<text x="938" y="355.8" fill="#000" font-family="Verdana" font-size="12">lastname</text>
	<text x="938" y="372.8" fill="#000" font-family="Verdana" font-size="12">login</text>
	<text x="938" y="389.8" fill="#000" font-family="Verdana" font-size="12">password</text>
	<text x="938" y="406.8" fill="#000" font-family="Verdana" font-size="12">email</text>
	<text x="938" y="423.8" fill="#000" font-family="Verdana" font-size="12">speciality</text>
</g>

<!-- Entity NOTIFICATION -->
<g class="page_0_ALPQqCix diagram_page" visibility="visible">
	<g>
		<rect x="1153" y="313" width="102" height="25" fill="#bababa" stroke="#bababa" stroke-width="0" opacity="1"/>
		<rect x="1153" y="338" width="102" height="59" fill="#e0e0e0" stroke="#e0e0e0" stroke-width="0" opacity="1"/>
		<rect x="1153" y="313" width="102" height="84" fill="none" stroke="#878787" stroke-width="2" opacity="1"/>
		<line x1="1153" y1="338" x2="1255" y2="338" stroke="#878787" stroke-width="1"/>
	</g>
	<text x="1159" y="330.75" fill="#000" font-family="Verdana" font-size="12">NOTIFICATION</text>
	<text x="1158" y="355.8" fill="#000" font-family="Verdana" font-size="12">id_notification</text>
	<line x1="1158" y1="358" x2="1244" y2="358" stroke="#000" stroke-width="1"/>
	<text x="1158" y="372.8" fill="#000" font-family="Verdana" font-size="12">message</text>
	<text x="1158" y="389.8" fill="#000" font-family="Verdana" font-size="12">link</text>
</g>

<!-- Entity JURY -->
<g class="page_0_ALPQqCix diagram_page" visibility="visible">
	<g>
		<rect x="167" y="456" width="54" height="25" fill="#bababa" stroke="#bababa" stroke-width="0" opacity="1"/>
		<rect x="167" y="481" width="54" height="25" fill="#e0e0e0" stroke="#e0e0e0" stroke-width="0" opacity="1"/>
		<rect x="167" y="456" width="54" height="50" fill="none" stroke="#878787" stroke-width="2" opacity="1"/>
		<line x1="167" y1="481" x2="221" y2="481" stroke="#878787" stroke-width="1"/>
	</g>
	<text x="179" y="473.75" fill="#000" font-family="Verdana" font-size="12">JURY</text>
	<text x="172" y="498.8" fill="#000" font-family="Verdana" font-size="12">id_jury</text>
	<line x1="172" y1="501" x2="215" y2="501" stroke="#000" stroke-width="1"/>
</g>

<!-- Entity TEACHING_STAFF -->
<g class="page_0_ALPQqCix diagram_page" visibility="visible">
	<g>
		<rect x="705" y="413" width="174" height="25" fill="#bababa" stroke="#bababa" stroke-width="0" opacity="1"/>
		<rect x="705" y="438" width="174" height="111" fill="#e0e0e0" stroke="#e0e0e0" stroke-width="0" opacity="1"/>
		<rect x="705" y="413" width="174" height="136" fill="none" stroke="#878787" stroke-width="2" opacity="1"/>
		<line x1="705" y1="438" x2="879" y2="438" stroke="#878787" stroke-width="1"/>
	</g>
	<text x="737" y="430.75" fill="#000" font-family="Verdana" font-size="12">TEACHING_STAFF</text>
	<text x="710" y="455.8" fill="#000" font-family="Verdana" font-size="12">id_user</text>
	<line x1="710" y1="458" x2="756" y2="458" stroke="#000" stroke-width="1"/>
	<text x="710" y="472.8" fill="#000" font-family="Verdana" font-size="12">is_infrastructure_specialist</text>
	<text x="710" y="489.8" fill="#000" font-family="Verdana" font-size="12">is_development_specialist</text>
	<text x="710" y="506.8" fill="#000" font-family="Verdana" font-size="12">is_modeling_specialist</text>
	<text x="710" y="523.8" fill="#000" font-family="Verdana" font-size="12">is_option_leader</text>
	<text x="710" y="540.8" fill="#000" font-family="Verdana" font-size="12">is_subject_validator</text>
</g>
</svg>